<?xml version="1.0" encoding="utf-8"?>
<!-- Generator: Adobe Illustrator 19.1.0, SVG Export Plug-In . SVG Version: 6.00 Build 0)  -->
<svg version="1.1" id="Layer_1" xmlns="http://www.w3.org/2000/svg" xmlns:xlink="http://www.w3.org/1999/xlink" x="0px" y="0px"
	 viewBox="-260 352 90 90" style="enable-background:new -260 352 90 90;" xml:space="preserve">
<style type="text/css">
	.st0{fill:none;stroke:#000000;stroke-width:11;stroke-miterlimit:10;}
</style>
<path class="st0" d="M-219.9,400.9"/>
<path d="M-215,352c-24.3,0-44,19.7-44,44s19.7,44,44,44s44-19.7,44-44S-190.7,352-215,352z M-225.8,414.2h-8.9v-28.7h8.9
	C-225.8,385.6-225.8,414.2-225.8,414.2z M-230.3,382c-2.8,0-4.6-2-4.6-4.5c0-2.5,1.9-4.5,4.7-4.5s4.6,1.9,4.7,4.5
	C-225.5,380-227.3,382-230.3,382z M-193.2,414.2h-8.9v-15.9c0-3.7-1.3-6.2-4.5-6.2c-2.5,0-3.9,1.7-4.6,3.3c-0.2,0.6-0.3,1.4-0.3,2.2
	v16.5h-8.9v-19.5c0-3.6-0.1-6.6-0.2-9.1h7.7l0.4,4h0.2c1.2-1.9,4-4.6,8.9-4.6c5.9,0,10.3,3.9,10.3,12.4
	C-193.2,397.3-193.2,414.2-193.2,414.2z"/>
</svg>
